<?xml version="1.0" standalone="no"?>

  <svg
    width="1000"
    height="1000"
    viewBox="0 0 1000 1000"
    xmlns="http://www.w3.org/2000/svg"
  >
    <defs>
      
      
      
      
      
      
      
      <clipPath id="shape">
        <path fill="currentColor" d="M846,629Q705,758,564.5,796.5Q424,835,239,775Q54,715,73,509.5Q92,304,252.5,211.5Q413,119,573,163.5Q733,208,860,354Q987,500,846,629Z"></path>
      </clipPath>
    </defs>
  
    

    <g  clip-path="url(#shape)">
      <path fill="#5BD0EA" d="M846,629Q705,758,564.5,796.5Q424,835,239,775Q54,715,73,509.5Q92,304,252.5,211.5Q413,119,573,163.5Q733,208,860,354Q987,500,846,629Z" />
    </g>

    
  
  </svg>